HIERARCHY
ROOT root
{
	OFFSET 0.000000 0.000000 0.000000
	CHANNELS 6 Xposition Yposition Zposition Zrotation Yrotation Xrotation
	JOINT lhip
	{
		OFFSET 0.058581 -0.082280 -0.017664
		CHANNELS 3 Zrotation Yrotation Xrotation
		JOINT lknee
		{
			OFFSET 0.043451 -0.386469 0.008037
			CHANNELS 3 Zrotation Yrotation Xrotation
			JOINT lankle
			{
				OFFSET -0.014790 -0.426874 -0.037428
				CHANNELS 3 Zrotation Yrotation Xrotation
				JOINT ltoe
				{
					OFFSET 0.041054 -0.060286 0.122042
					CHANNELS 3 Zrotation Yrotation Xrotation
					End Site
					{
						OFFSET 0.000000 0.000000 0.000000
					}
				}
			}
		}
	}
	JOINT rhip
	{
		OFFSET -0.060310 -0.090513 -0.013543
		CHANNELS 3 Zrotation Yrotation Xrotation
		JOINT rknee
		{
			OFFSET -0.043257 -0.383688 -0.004843
			CHANNELS 3 Zrotation Yrotation Xrotation
			JOINT rankle
			{
				OFFSET 0.019056 -0.420046 -0.034562
				CHANNELS 3 Zrotation Yrotation Xrotation
				JOINT rtoe
				{
					OFFSET -0.034840 -0.062106 0.130323
					CHANNELS 3 Zrotation Yrotation Xrotation
					End Site
					{
						OFFSET 0.000000 0.000000 0.000000
					}
				}
			}
		}
	}
	JOINT lowerback
	{
		OFFSET 0.004439 0.124404 -0.038385
		CHANNELS 3 Zrotation Yrotation Xrotation
		JOINT upperback
		{
			OFFSET 0.004488 0.137956 0.026820
			CHANNELS 3 Zrotation Yrotation Xrotation
			JOINT chest
			{
				OFFSET -0.002265 0.056032 0.002855
				CHANNELS 3 Zrotation Yrotation Xrotation
				JOINT lowerneck
				{
					OFFSET -0.013390 0.211636 -0.033468
					CHANNELS 3 Zrotation Yrotation Xrotation
					JOINT upperneck
					{
						OFFSET 0.010113 0.088937 0.050410
						CHANNELS 3 Zrotation Yrotation Xrotation
						End Site
						{
							OFFSET 0.000000 0.000000 0.000000
						}
					}
				}
				JOINT lclavicle
				{
					OFFSET 0.071702 0.114000 -0.018898
					CHANNELS 3 Zrotation Yrotation Xrotation
					JOINT lshoulder
					{
						OFFSET 0.122921 0.045205 -0.019046
						CHANNELS 3 Zrotation Yrotation Xrotation
						JOINT lelbow
						{
							OFFSET 0.255332 -0.015649 -0.022946
							CHANNELS 3 Zrotation Yrotation Xrotation
							JOINT lwrist
							{
								OFFSET 0.265709 0.012698 -0.007375
								CHANNELS 3 Zrotation Yrotation Xrotation
								End Site
								{
									OFFSET 0.000000 0.000000 0.000000
								}
							}
						}
					}
				}
				JOINT rclavicle
				{
					OFFSET -0.082954 0.112472 -0.023707
					CHANNELS 3 Zrotation Yrotation Xrotation
					JOINT rshoulder
					{
						OFFSET -0.113228 0.046853 -0.008472
						CHANNELS 3 Zrotation Yrotation Xrotation
						JOINT relbow
						{
							OFFSET -0.260127 -0.014369 -0.031269
							CHANNELS 3 Zrotation Yrotation Xrotation
							JOINT rwrist
							{
								OFFSET -0.269108 0.006794 -0.006027
								CHANNELS 3 Zrotation Yrotation Xrotation
								End Site
								{
									OFFSET 0.000000 0.000000 0.000000
								}
							}
						}
					}
				}
			}
		}
	}
}
MOTION
Frames: 11
Frame Time: 0.033333
-1.514378 3.071221 0.981177 31.977241 2.014916 83.781570 2.271692 5.788860 10.229891 -7.185713 0.763623 -3.757086 5.154397 13.512131 -14.010687 0.000000 -0.000000 0.000000 -1.595174 -1.487516 -10.273773 -0.797914 -10.013267 37.308008 4.359226 -14.234354 -16.529645 0.000000 -0.000000 0.000000 -0.254871 -2.665142 7.317918 0.923311 -0.790679 4.091406 -0.361867 -1.791792 2.796919 1.837992 3.262125 -14.598873 -1.934370 -1.280744 3.460803 -27.242987 -1.755209 1.358786 -57.704314 -9.243815 8.587799 9.621417 -24.715095 1.996672 -0.197933 -6.066184 -8.348854 27.705288 5.966773 1.614162 52.301428 6.549347 15.649272 -10.936588 28.192950 -5.360304 3.712044 4.364063 -7.854453 
-1.512403 3.071850 0.980786 31.952042 2.144654 83.634868 2.287448 5.825935 10.468032 -7.173576 0.595054 -3.857186 5.129431 13.613177 -14.014476 0.000000 -0.000000 0.000000 -1.399953 -1.184417 -10.227888 -0.006187 -8.612030 36.950955 4.553818 -13.331862 -16.969832 0.000000 -0.000000 0.000000 -0.365037 -2.867722 7.181557 0.937133 -1.000147 4.175714 -0.445032 -1.871310 3.095160 1.758179 3.362249 -14.617583 -1.837107 -1.573064 3.557321 -27.100673 -2.118460 1.253769 -57.486052 -9.882610 8.662506 9.623575 -25.132449 1.622279 -0.045457 -6.252293 -8.264578 27.761060 5.771303 1.625777 52.587999 6.184045 15.535398 -11.194831 27.738945 -5.511182 3.523017 4.376715 -7.744499 
-1.510599 3.071839 0.980573 31.982484 2.244570 83.511875 2.254059 5.765371 10.712071 -7.097578 0.564493 -3.974381 5.182634 13.654298 -14.012540 0.000000 -0.000000 0.000000 -1.203838 -0.885580 -9.806921 0.402504 -7.958104 35.952794 4.599413 -12.780732 -16.200796 0.000000 -0.000000 0.000000 -0.449624 -2.971104 6.964991 0.965949 -1.200875 4.289175 -0.523235 -1.956289 3.167364 1.647120 3.213274 -14.250615 -1.659958 -1.755636 3.657638 -27.034328 -2.383992 1.147679 -57.358030 -10.447254 8.814972 9.788094 -25.158003 1.477951 0.001903 -6.451532 -8.220810 27.796337 5.471222 1.647038 52.899673 5.614962 15.569391 -11.193015 27.008684 -5.293668 3.532326 4.365454 -7.794183 
-1.508827 3.071084 0.980205 31.965118 2.256747 83.519389 2.126033 5.691232 10.795573 -6.990384 0.681269 -4.005093 5.155428 13.605487 -14.038510 0.000000 -0.000000 0.000000 -0.943719 -1.030788 -9.038552 0.268802 -7.790503 34.190741 4.386125 -12.750689 -15.045193 0.000000 -0.000000 0.000000 -0.517937 -2.954001 6.533408 0.906604 -1.366218 4.251644 -0.597601 -2.018883 3.250401 1.473556 2.899106 -13.746510 -1.449758 -1.905736 4.002782 -26.927071 -2.395259 1.007804 -57.327112 -11.085556 8.892546 9.927247 -25.195699 1.465245 -0.220697 -6.553367 -8.103796 27.757260 4.929781 1.679123 53.454934 4.890521 15.519471 -11.159104 25.866869 -5.234774 3.841464 4.221845 -7.974216 
-1.508091 3.070339 0.980122 31.887524 2.251061 83.519468 2.066883 5.711224 10.854346 -6.908301 0.760031 -4.013990 5.035943 13.557176 -14.055008 0.000000 -0.000000 0.000000 -0.748541 -1.219673 -8.381435 0.003144 -7.922384 33.041109 4.251961 -12.865150 -15.055449 0.000000 -0.000000 0.000000 -0.523029 -2.926336 6.342664 0.836519 -1.426147 4.133927 -0.631338 -2.019566 3.293434 1.396868 2.754738 -13.478928 -1.354056 -2.008851 4.279636 -26.892324 -2.273932 0.944434 -57.364209 -11.360879 8.885592 10.028393 -25.320154 1.424327 -0.317769 -6.568765 -8.098397 27.761473 4.634748 1.695111 53.765745 4.450351 15.425343 -11.106820 25.084968 -5.291143 4.045887 4.092563 -8.086791 
-1.507382 3.069251 0.980158 31.646887 2.276897 83.506113 2.012871 5.764106 10.972509 -6.748104 0.945858 -4.073306 4.847642 13.530241 -14.079407 0.000000 -0.000000 0.000000 -0.440221 -1.474524 -7.339233 -0.277534 -8.000065 31.247234 4.075617 -12.898161 -15.329889 0.000000 -0.000000 0.000000 -0.438093 -2.855427 6.083862 0.746556 -1.477527 4.032763 -0.673404 -1.978599 3.366372 1.307653 2.617151 -13.204201 -1.268143 -2.132504 4.577808 -26.914040 -2.044914 0.891130 -57.497134 -11.599781 8.879146 10.247107 -25.561679 1.321925 -0.401670 -6.630128 -8.129608 27.793111 4.306267 1.746313 54.072748 3.953042 15.290011 -10.994268 23.993557 -5.291553 4.252755 3.929422 -8.131068 
-1.507065 3.068268 0.980111 31.283414 2.315246 83.534850 1.993057 5.824423 11.011699 -6.618079 1.219351 -4.102289 4.704814 13.539807 -14.138024 0.000000 -0.000000 0.000000 -0.156155 -1.794164 -6.382188 -0.375434 -7.842037 29.406965 3.806114 -12.882249 -15.599632 0.000000 -0.000000 0.000000 -0.317625 -2.713220 5.757219 0.693536 -1.512291 4.038111 -0.688782 -1.930182 3.441332 1.229170 2.488851 -12.954999 -1.197044 -2.214600 4.735597 -26.970463 -1.799512 0.893539 -57.737242 -11.742429 8.867699 10.476942 -25.802473 1.206308 -0.398371 -6.644061 -8.253845 27.780678 4.038437 1.803211 54.304591 3.562119 15.143029 -10.892161 22.985187 -5.238769 4.419933 3.754940 -8.103834 
-1.507153 3.067492 0.980105 30.830932 2.357689 83.595591 2.026861 5.924863 10.982783 -6.549117 1.526757 -4.106673 4.569834 13.529714 -14.179700 0.000000 -0.000000 0.000000 0.032356 -2.189056 -5.562859 -0.326498 -7.650422 27.680848 3.524937 -12.700887 -15.738024 0.000000 -0.000000 0.000000 -0.169325 -2.550943 5.492716 0.654680 -1.542960 4.064695 -0.681193 -1.887687 3.471756 1.164550 2.369681 -12.761278 -1.139056 -2.227900 4.771336 -27.069731 -1.522336 0.881101 -58.019125 -11.733061 8.845579 10.617686 -25.971987 1.182252 -0.366292 -6.646879 -8.376142 27.748679 3.811656 1.865948 54.463243 3.287175 14.970465 -10.782521 22.165442 -5.179910 4.520491 3.621654 -8.032189 
-1.507552 3.066967 0.980207 30.268829 2.417059 83.647951 2.077544 6.044776 10.975942 -6.475952 1.886544 -4.176136 4.439257 13.543547 -14.169069 0.000000 -0.000000 0.000000 0.135092 -2.502688 -4.855306 -0.127139 -7.518697 26.096304 3.305484 -12.402184 -15.727747 0.000000 -0.000000 0.000000 0.018973 -2.416363 5.330314 0.626838 -1.544694 4.091424 -0.656072 -1.842313 3.497116 1.110876 2.294412 -12.661405 -1.111556 -2.173657 4.744855 -27.209765 -1.243391 0.877847 -58.333674 -11.560436 8.858236 10.719627 -26.040510 1.191915 -0.325686 -6.817504 -8.538676 27.716251 3.654516 1.954866 54.524752 3.187211 14.821164 -10.658690 21.543285 -5.098654 4.442987 3.606612 -7.992516 
-1.508336 3.066575 0.980304 29.498271 2.500933 83.724772 2.132440 6.172595 10.973219 -6.382027 2.355278 -4.343639 4.328515 13.643433 -14.125166 0.000000 -0.000000 0.000000 0.256224 -2.679735 -4.190932 0.179310 -7.233142 24.442924 3.059934 -12.069984 -15.713117 0.000000 -0.000000 0.000000 0.261563 -2.299484 5.126360 0.623459 -1.532661 4.133241 -0.611968 -1.797212 3.565736 1.075833 2.303640 -12.490313 -1.097101 -2.025498 4.736458 -27.332055 -0.950146 0.940462 -58.858706 -11.295301 8.873481 10.785791 -25.720582 1.146677 -0.138404 -7.006606 -8.828289 27.603830 3.505414 2.016141 54.572259 3.206650 14.736797 -10.572007 21.194102 -4.967135 4.214693 3.621992 -8.048033 
-1.509135 3.066240 0.980346 28.896200 2.541176 83.820263 2.171086 6.266535 10.953876 -6.335706 2.694669 -4.503309 4.240765 13.728433 -14.075715 0.000000 -0.000000 0.000000 0.392928 -2.688234 -3.770846 0.346410 -6.863594 23.288626 2.872103 -11.883590 -15.696728 0.000000 -0.000000 0.000000 0.389781 -2.252425 4.946976 0.656936 -1.545026 4.158550 -0.556208 -1.780958 3.593899 1.075956 2.379241 -12.342149 -1.153819 -1.844482 4.816593 -27.414540 -0.629221 0.961535 -59.322632 -10.947064 8.865708 10.769216 -25.172374 1.213794 -0.198238 -7.005999 -8.942471 27.562297 3.343615 2.024273 54.528073 3.300904 14.758403 -10.582938 21.256316 -4.893941 4.106031 3.633048 -8.116506 
